<svg width="170" height="170" viewBox="0 0 170 170" fill="none" xmlns="http://www.w3.org/2000/svg">
<rect width="169.313" height="169.313" rx="48" fill="#FEEAD1"/>
<rect x="90.647" y="43.1664" width="16.6404" height="2.81527" fill="#1E1919"/>
<rect x="90.5237" y="57.1149" width="16.6404" height="2.81527" fill="#1E1919"/>
<path fill-rule="evenodd" clip-rule="evenodd" d="M105.355 43.2944L90.5237 57.158L92.6756 59.6392L107.287 45.9805V45.5228L105.355 43.2944Z" fill="#1E1919"/>
<rect x="112.021" y="26.4027" width="16.6404" height="2.81527" fill="#1E1919"/>
<rect x="111.897" y="40.3512" width="16.6404" height="2.81527" fill="#1E1919"/>
<path fill-rule="evenodd" clip-rule="evenodd" d="M126.728 26.5308L111.897 40.3944L114.049 42.8755L128.661 29.2169V28.7591L126.728 26.5308Z" fill="#1E1919"/>
<rect x="139.261" y="20.1165" width="16.6404" height="2.81527" fill="#1E1919"/>
<rect x="139.138" y="34.0648" width="16.6404" height="2.81527" fill="#1E1919"/>
<path fill-rule="evenodd" clip-rule="evenodd" d="M153.969 20.2444L139.138 34.108L141.29 36.5891L155.902 22.9305V22.4727L153.969 20.2444Z" fill="#1E1919"/>
<rect x="36.0273" y="87.1565" width="44.8719" height="49.901" fill="white" stroke="#6E6E6E" stroke-width="5"/>
<rect x="28.2032" y="91.2937" width="5.89638" height="46.5645" transform="rotate(-5 28.2032 91.2937)" fill="white" stroke="#6E6E6E" stroke-width="5"/>
<rect x="82.0961" y="90.7177" width="5.89638" height="46.7238" transform="rotate(5 82.0961 90.7177)" fill="white" stroke="#6E6E6E" stroke-width="5"/>
<mask id="path-14-inside-1_2_2119" fill="white">
<path fill-rule="evenodd" clip-rule="evenodd" d="M72.7468 63.5704C75.2822 62.8423 78.0237 62.4446 80.8848 62.4446C93.8464 62.4446 104.354 70.6067 104.354 80.6751C104.354 90.7435 93.8464 98.9056 80.8848 98.9056C75.6048 98.9056 70.732 97.5512 66.8109 95.2652C64.2755 95.9933 61.534 96.391 58.6729 96.391C55.8118 96.391 53.0703 95.9933 50.535 95.2652C46.6138 97.5512 41.7411 98.9056 36.4611 98.9056C23.4994 98.9056 12.9919 90.7435 12.9919 80.6751C12.9919 70.6067 23.4994 62.4446 36.4611 62.4446C39.3222 62.4446 42.0637 62.8423 44.599 63.5704C48.5202 61.2845 53.3929 59.9301 58.6729 59.9301C63.9529 59.9301 68.8257 61.2845 72.7468 63.5704Z"/>
</mask>
<path fill-rule="evenodd" clip-rule="evenodd" d="M72.7468 63.5704C75.2822 62.8423 78.0237 62.4446 80.8848 62.4446C93.8464 62.4446 104.354 70.6067 104.354 80.6751C104.354 90.7435 93.8464 98.9056 80.8848 98.9056C75.6048 98.9056 70.732 97.5512 66.8109 95.2652C64.2755 95.9933 61.534 96.391 58.6729 96.391C55.8118 96.391 53.0703 95.9933 50.535 95.2652C46.6138 97.5512 41.7411 98.9056 36.4611 98.9056C23.4994 98.9056 12.9919 90.7435 12.9919 80.6751C12.9919 70.6067 23.4994 62.4446 36.4611 62.4446C39.3222 62.4446 42.0637 62.8423 44.599 63.5704C48.5202 61.2845 53.3929 59.9301 58.6729 59.9301C63.9529 59.9301 68.8257 61.2845 72.7468 63.5704Z" fill="white"/>
<path d="M72.7468 63.5704L70.2286 67.89L72.0739 68.9657L74.1269 68.3761L72.7468 63.5704ZM66.8109 95.2652L69.3291 90.9457L67.4838 89.8699L65.4308 90.4595L66.8109 95.2652ZM50.535 95.2652L51.9151 90.4595L49.8621 89.8699L48.0168 90.9457L50.535 95.2652ZM44.599 63.5704L43.2189 68.3761L45.2719 68.9657L47.1172 67.89L44.599 63.5704ZM74.1269 68.3761C76.209 67.7782 78.4858 67.4446 80.8848 67.4446V57.4446C77.5615 57.4446 74.3553 57.9064 71.3667 58.7646L74.1269 68.3761ZM80.8848 67.4446C92.3337 67.4446 99.3539 74.4698 99.3539 80.6751H109.354C109.354 66.7436 95.3591 57.4446 80.8848 57.4446V67.4446ZM99.3539 80.6751C99.3539 86.8804 92.3337 93.9056 80.8848 93.9056V103.906C95.3591 103.906 109.354 94.6066 109.354 80.6751H99.3539ZM80.8848 93.9056C76.4467 93.9056 72.4496 92.7648 69.3291 90.9457L64.2927 99.5848C69.0145 102.338 74.7629 103.906 80.8848 103.906V93.9056ZM65.4308 90.4595C63.3487 91.0574 61.0719 91.391 58.6729 91.391V101.391C61.9962 101.391 65.2024 100.929 68.191 100.071L65.4308 90.4595ZM58.6729 91.391C56.274 91.391 53.9972 91.0574 51.9151 90.4595L49.1548 100.071C52.1434 100.929 55.3497 101.391 58.6729 101.391V91.391ZM48.0168 90.9457C44.8963 92.7648 40.8992 93.9056 36.4611 93.9056V103.906C42.583 103.906 48.3314 102.338 53.0532 99.5848L48.0168 90.9457ZM36.4611 93.9056C25.0121 93.9056 17.9919 86.8804 17.9919 80.6751H7.99194C7.99194 94.6066 21.9867 103.906 36.4611 103.906V93.9056ZM17.9919 80.6751C17.9919 74.4698 25.0121 67.4446 36.4611 67.4446V57.4446C21.9867 57.4446 7.99194 66.7436 7.99194 80.6751H17.9919ZM36.4611 67.4446C38.86 67.4446 41.1368 67.7782 43.2189 68.3761L45.9791 58.7646C42.9906 57.9064 39.7843 57.4446 36.4611 57.4446V67.4446ZM47.1172 67.89C50.2377 66.0708 54.2348 64.9301 58.6729 64.9301V54.9301C52.551 54.9301 46.8026 56.4981 42.0808 59.2508L47.1172 67.89ZM58.6729 64.9301C63.111 64.9301 67.1081 66.0708 70.2286 67.89L75.265 59.2508C70.5432 56.4981 64.7948 54.9301 58.6729 54.9301V64.9301Z" fill="#6E6E6E" mask="url(#path-14-inside-1_2_2119)"/>
<mask id="path-16-inside-2_2_2119" fill="white">
<path fill-rule="evenodd" clip-rule="evenodd" d="M86.3328 139.557H30.1746V158.417H30.1746C30.175 160.963 42.7463 163.026 58.2537 163.026C73.7614 163.026 86.3329 160.963 86.3329 158.416C86.3329 158.414 86.3328 158.412 86.3328 158.41V139.557Z"/>
</mask>
<path fill-rule="evenodd" clip-rule="evenodd" d="M86.3328 139.557H30.1746V158.417H30.1746C30.175 160.963 42.7463 163.026 58.2537 163.026C73.7614 163.026 86.3329 160.963 86.3329 158.416C86.3329 158.414 86.3328 158.412 86.3328 158.41V139.557Z" fill="white"/>
<path d="M30.1746 139.557V134.557H25.1746V139.557H30.1746ZM86.3328 139.557H91.3328V134.557H86.3328V139.557ZM30.1746 158.417H25.1746V163.417H30.1746V158.417ZM30.1746 158.417L35.1746 158.416L35.1738 153.417H30.1746V158.417ZM86.3328 158.41H81.3328V158.43L81.333 158.451L86.3328 158.41ZM30.1746 144.557H86.3328V134.557H30.1746V144.557ZM35.1746 158.417V139.557H25.1746V158.417H35.1746ZM30.1746 153.417H30.1746V163.417H30.1746V153.417ZM58.2537 158.026C50.685 158.026 43.949 157.521 39.2091 156.742C36.7992 156.347 35.137 155.917 34.1906 155.55C33.6917 155.356 33.6763 155.287 33.874 155.446C34.0004 155.547 35.1743 156.518 35.1746 158.416L25.1746 158.417C25.175 160.951 26.7418 162.544 27.6164 163.246C28.5622 164.005 29.6502 164.514 30.5722 164.872C32.4677 165.608 34.9176 166.172 37.589 166.61C43.0116 167.501 50.3151 168.026 58.2537 168.026V158.026ZM81.3329 158.416C81.3329 156.519 82.5068 155.547 82.6334 155.446C82.8312 155.287 82.8159 155.356 82.317 155.55C81.3707 155.917 79.7085 156.347 77.2986 156.742C72.5586 157.521 65.8226 158.026 58.2537 158.026V168.026C66.1925 168.026 73.4961 167.5 78.9187 166.61C81.5901 166.172 84.0401 165.608 85.9356 164.872C86.8575 164.514 87.9455 164.004 88.8914 163.245C89.7661 162.544 91.3329 160.951 91.3329 158.416H81.3329ZM81.333 158.451C81.3329 158.443 81.3329 158.431 81.3329 158.416H91.3329C91.3329 158.398 91.3328 158.381 91.3327 158.368L81.333 158.451ZM81.3328 139.557V158.41H91.3328V139.557H81.3328Z" fill="#6E6E6E" mask="url(#path-16-inside-2_2_2119)"/>
<line x1="59.4962" y1="95.996" x2="59.0771" y2="139.581" stroke="#6E6E6E" stroke-width="5"/>
</svg>
